<?xml version="1.0" encoding="UTF-8"?>
<svg xmlns="http://www.w3.org/2000/svg" width="1200" height="630" viewBox="0 0 1200 630" fill="none">
  <defs>
    <style>
      @import url('https://fonts.googleapis.com/css2?family=Orbitron:wght@700;800&amp;display=swap');
      .og-title {
        font-family: 'Orbitron', sans-serif;
        font-size: 92px;
        font-weight: 800;
        letter-spacing: 0.12em;
        text-transform: uppercase;
      }
    </style>
    <linearGradient id="shell-bg" x1="600" y1="0" x2="600" y2="630" gradientUnits="userSpaceOnUse">
      <stop offset="0" stop-color="#050913" />
      <stop offset="0.58" stop-color="#010205" />
      <stop offset="1" stop-color="#000000" />
    </linearGradient>
    <radialGradient id="shell-glow" cx="0" cy="0" r="1" gradientUnits="userSpaceOnUse" gradientTransform="translate(600 18) rotate(90) scale(280 720)">
      <stop offset="0" stop-color="#67b4ff" stop-opacity="0.08" />
      <stop offset="1" stop-color="#67b4ff" stop-opacity="0" />
    </radialGradient>
    <pattern id="stars-near" width="256" height="256" patternUnits="userSpaceOnUse" patternTransform="translate(-120 -70) scale(3.35)">
      <rect width="256" height="256" fill="#010205" />

    <circle cx="12" cy="28" r="3.6" fill="#67b4ff" fill-opacity="0.22" />
    <circle cx="12" cy="28" r="1.6" fill="#f8fbff" fill-opacity="0.8" />
  
    <circle cx="38" cy="130" r="3.2" fill="#67b4ff" fill-opacity="0.22" />
    <circle cx="38" cy="130" r="1.2" fill="#f8fbff" fill-opacity="0.8" />
  
    <circle cx="64" cy="60" r="2.9" fill="#67b4ff" fill-opacity="0.22" />
    <circle cx="64" cy="60" r="0.9" fill="#f8fbff" fill-opacity="0.8" />
  
    <circle cx="90" cy="210" r="3.4" fill="#67b4ff" fill-opacity="0.22" />
    <circle cx="90" cy="210" r="1.4" fill="#f8fbff" fill-opacity="0.8" />
  
    <circle cx="118" cy="34" r="3.1" fill="#67b4ff" fill-opacity="0.22" />
    <circle cx="118" cy="34" r="1.1" fill="#f8fbff" fill-opacity="0.8" />
  
    <circle cx="140" cy="162" r="3.3" fill="#67b4ff" fill-opacity="0.22" />
    <circle cx="140" cy="162" r="1.3" fill="#f8fbff" fill-opacity="0.8" />
  
    <circle cx="180" cy="96" r="3.5" fill="#67b4ff" fill-opacity="0.22" />
    <circle cx="180" cy="96" r="1.5" fill="#f8fbff" fill-opacity="0.8" />
  
    <circle cx="204" cy="48" r="2.8" fill="#67b4ff" fill-opacity="0.22" />
    <circle cx="204" cy="48" r="0.8" fill="#f8fbff" fill-opacity="0.8" />
  
    <circle cx="222" cy="188" r="3.6" fill="#67b4ff" fill-opacity="0.22" />
    <circle cx="222" cy="188" r="1.6" fill="#f8fbff" fill-opacity="0.8" />
  
    <circle cx="236" cy="118" r="3" fill="#67b4ff" fill-opacity="0.22" />
    <circle cx="236" cy="118" r="1" fill="#f8fbff" fill-opacity="0.8" />
  
    </pattern>
    <pattern id="stars-far" width="256" height="256" patternUnits="userSpaceOnUse" patternTransform="translate(40 28) scale(2.7)">
      <rect width="256" height="256" fill="transparent" />

    <circle cx="12" cy="28" r="3.6" fill="#67b4ff" fill-opacity="0.22" />
    <circle cx="12" cy="28" r="1.6" fill="#f8fbff" fill-opacity="0.8" />
  
    <circle cx="38" cy="130" r="3.2" fill="#67b4ff" fill-opacity="0.22" />
    <circle cx="38" cy="130" r="1.2" fill="#f8fbff" fill-opacity="0.8" />
  
    <circle cx="64" cy="60" r="2.9" fill="#67b4ff" fill-opacity="0.22" />
    <circle cx="64" cy="60" r="0.9" fill="#f8fbff" fill-opacity="0.8" />
  
    <circle cx="90" cy="210" r="3.4" fill="#67b4ff" fill-opacity="0.22" />
    <circle cx="90" cy="210" r="1.4" fill="#f8fbff" fill-opacity="0.8" />
  
    <circle cx="118" cy="34" r="3.1" fill="#67b4ff" fill-opacity="0.22" />
    <circle cx="118" cy="34" r="1.1" fill="#f8fbff" fill-opacity="0.8" />
  
    <circle cx="140" cy="162" r="3.3" fill="#67b4ff" fill-opacity="0.22" />
    <circle cx="140" cy="162" r="1.3" fill="#f8fbff" fill-opacity="0.8" />
  
    <circle cx="180" cy="96" r="3.5" fill="#67b4ff" fill-opacity="0.22" />
    <circle cx="180" cy="96" r="1.5" fill="#f8fbff" fill-opacity="0.8" />
  
    <circle cx="204" cy="48" r="2.8" fill="#67b4ff" fill-opacity="0.22" />
    <circle cx="204" cy="48" r="0.8" fill="#f8fbff" fill-opacity="0.8" />
  
    <circle cx="222" cy="188" r="3.6" fill="#67b4ff" fill-opacity="0.22" />
    <circle cx="222" cy="188" r="1.6" fill="#f8fbff" fill-opacity="0.8" />
  
    <circle cx="236" cy="118" r="3" fill="#67b4ff" fill-opacity="0.22" />
    <circle cx="236" cy="118" r="1" fill="#f8fbff" fill-opacity="0.8" />
  
    </pattern>
    <filter id="viewport-distort" x="-5%" y="-5%" width="110%" height="110%">
      <feGaussianBlur stdDeviation="1" />
      <feColorMatrix type="matrix" values="
        0.96 0 0 0 0
        0 1 0 0 0
        0 0 1.03 0 0
        0 0 0 1 0" />
    </filter>
  </defs>

  <rect width="1200" height="630" fill="url(#shell-bg)" />
  <rect width="1200" height="630" fill="url(#shell-glow)" />

  <g filter="url(#viewport-distort)">
    <rect width="1200" height="630" fill="url(#stars-far)" opacity="0.45" />
    <rect width="1200" height="630" fill="url(#stars-near)" opacity="0.92" style="mix-blend-mode:screen" />

    <text class="og-title" x="600" y="120" fill="#edf4ff" text-anchor="middle">ASTEROIDS</text>

    <g transform="translate(936 264) rotate(18)">
      <polygon
        points="20.16,112.00 100.80,58.24 109.76,-13.44 53.76,-96.32 -13.44,-112.00 -85.12,-71.68 -112.00,2.24 -85.12,80.64"
        fill="#ff8a5b"
        fill-opacity="0.08"
        stroke="#ff8a5b"
        stroke-opacity="0.95"
        stroke-width="3"
        stroke-linejoin="round"
      />
    </g>

    <g transform="translate(1012 408) rotate(-12)">
      <polygon
        points="5.40,51.84 49.68,12.96 37.80,-33.48 -4.32,-52.92 -46.44,-22.68 -38.88,35.64"
        fill="#ff8a5b"
        fill-opacity="0.08"
        stroke="#ff8a5b"
        stroke-opacity="0.95"
        stroke-width="3"
        stroke-linejoin="round"
      />
    </g>

    <g transform="translate(392 346) rotate(54 32 32) scale(1.65)">
      <path
        d="M32 8 52 46l-14-6-6 16-6-16-14 6L32 8Z"
        fill="#f8fbff"
        fill-opacity="0.14"
        stroke="#f8fbff"
        stroke-width="4"
        stroke-linejoin="round"
      />
      <path d="m32 16 6 18H26l6-18Z" fill="#67b4ff" />
    </g>

    <g transform="translate(454 346) rotate(-7 0 0)">
      <rect x="0" y="0" width="156" height="8" rx="4" fill="#f5f7ff" />
      <rect x="0" y="0" width="156" height="8" rx="4" stroke="#67b4ff" stroke-width="1" />
    </g>
  </g>
</svg>
